
            <svg xmlns="http://www.w3.org/2000/svg">
                <filter id="grayscale">
                    <feColorMatrix type="saturate" values="0"/>
                </filter>
                <g filter="url(#grayscale)">
                    <svg xmlns="http://www.w3.org/2000/svg" viewBox="20.00000000000003 184.74992393473133 534.9993402773536 205.50015213053734"> <g transform="rotate(0 127.37465797738088 287.5)"><svg xmlns="http://www.w3.org/2000/svg" xmlns:xlink="http://www.w3.org/1999/xlink" xmlnsSerif="http://www.serif.com/" viewBox="766.430908203125 857.1939086914062 1467.151611328125 1285.612548828125" version="1.1" xml:space="preserve" height="65.50015213053736" width="74.74931595476168" y="254.74992393473133" x="90.00000000000003" preserveAspectRatio="xMinYMin" fill-rule="evenodd" clip-rule="evenodd" stroke-linejoin="round" stroke-miterlimit="2" style="overflow: visible;"><path transform="matrix(3.50759,0,0,3.50759,-1537.74,-658.997)" d="M656.91,798.783L744.579,538.475L678.536,472.432L788.536,472.432L856.104,540L656.91,798.783Z" style="fill: #168A53; fill-opacity: 1;"></path><path transform="matrix(3.50759,0,0,3.50759,-1547.74,-658.997)" d="M799.357,665.689L979.035,432.26L1078.04,432.26L913.751,645.689L921.578,645.689L1008.5,758.611L909.497,758.611L837.973,665.689L799.357,665.689Z" style="fill: #E8FAF4; fill-opacity: 1;"></path></svg></g> <g transform="rotate(0 243.35934851709965 300.6680147189725)"><svg xmlns="http://www.w3.org/2000/svg" y="293.78801460453155" viewBox="0.5400000214576721 3.319999933242798 131.02000427246094 13.760000228881836" x="177.84934638086918" height="13.760000228881836" width="131.02000427246094" style="overflow: visible;"><g fill="#168A53" fill-opacity="1" style=""><path d="M5.14 14.23L4.01 14.23L0.54 3.94L1.66 3.94L4.91 13.62L4.35 13.62L7.70 3.94L8.70 3.94L12.01 13.62L11.48 13.62L14.75 3.94L15.80 3.94L12.33 14.23L11.18 14.23L8.02 5.04L8.32 5.04L5.14 14.23ZM21.79 14.30L21.79 14.30Q20.59 14.30 19.68 13.79Q18.77 13.29 18.25 12.40Q17.74 11.51 17.74 10.36L17.74 10.36Q17.74 9.21 18.23 8.33Q18.72 7.45 19.58 6.94Q20.44 6.44 21.52 6.44L21.52 6.44Q22.60 6.44 23.45 6.93Q24.29 7.42 24.78 8.31Q25.26 9.20 25.26 10.36L25.26 10.36Q25.26 10.43 25.26 10.52Q25.25 10.60 25.25 10.68L25.25 10.68L18.53 10.68L18.53 9.91L24.69 9.91L24.28 10.21Q24.28 9.38 23.92 8.72Q23.56 8.07 22.94 7.70Q22.32 7.33 21.52 7.33L21.52 7.33Q20.72 7.33 20.09 7.70Q19.46 8.07 19.10 8.73Q18.75 9.39 18.75 10.24L18.75 10.24L18.75 10.40Q18.75 11.29 19.14 11.96Q19.53 12.62 20.23 13.00Q20.93 13.37 21.82 13.37L21.82 13.37Q22.53 13.37 23.14 13.12Q23.75 12.87 24.19 12.36L24.19 12.36L24.78 13.04Q24.26 13.65 23.49 13.98Q22.72 14.30 21.79 14.30ZM32.11 14.30L32.11 14.30Q31.10 14.30 30.29 13.84Q29.48 13.37 29.01 12.49Q28.54 11.61 28.54 10.36L28.54 10.36Q28.54 9.10 29.02 8.22Q29.50 7.35 30.30 6.89Q31.11 6.44 32.11 6.44L32.11 6.44Q33.21 6.44 34.09 6.93Q34.96 7.42 35.46 8.30Q35.96 9.19 35.96 10.36L35.96 10.36Q35.96 11.52 35.46 12.41Q34.96 13.30 34.09 13.80Q33.21 14.30 32.11 14.30ZM29.13 14.23L28.13 14.23L28.13 3.32L29.17 3.32L29.17 8.79L29.02 10.35L29.13 11.90L29.13 14.23ZM32.04 13.37L32.04 13.37Q32.86 13.37 33.51 13.00Q34.15 12.62 34.54 11.94Q34.92 11.26 34.92 10.36L34.92 10.36Q34.92 9.45 34.54 8.77Q34.15 8.10 33.51 7.72Q32.86 7.35 32.04 7.35L32.04 7.35Q31.21 7.35 30.56 7.72Q29.91 8.10 29.53 8.77Q29.16 9.45 29.16 10.36L29.16 10.36Q29.16 11.26 29.53 11.94Q29.91 12.62 30.56 13.00Q31.21 13.37 32.04 13.37ZM46.48 14.30L46.48 14.30Q45.38 14.30 44.51 13.80Q43.63 13.30 43.13 12.41Q42.63 11.52 42.63 10.36L42.63 10.36Q42.63 9.19 43.13 8.30Q43.63 7.42 44.51 6.93Q45.38 6.44 46.48 6.44L46.48 6.44Q47.50 6.44 48.30 6.89Q49.10 7.35 49.58 8.22Q50.06 9.10 50.06 10.36L50.06 10.36Q50.06 11.61 49.58 12.49Q49.11 13.37 48.31 13.84Q47.51 14.30 46.48 14.30ZM46.56 13.37L46.56 13.37Q47.38 13.37 48.03 13.00Q48.69 12.62 49.06 11.94Q49.44 11.26 49.44 10.36L49.44 10.36Q49.44 9.45 49.06 8.77Q48.69 8.10 48.03 7.72Q47.38 7.35 46.56 7.35L46.56 7.35Q45.75 7.35 45.10 7.72Q44.46 8.10 44.07 8.77Q43.69 9.45 43.69 10.36L43.69 10.36Q43.69 11.26 44.07 11.94Q44.46 12.62 45.10 13.00Q45.75 13.37 46.56 13.37ZM50.47 14.23L49.47 14.23L49.47 11.90L49.57 10.35L49.42 8.79L49.42 3.32L50.47 3.32L50.47 14.23ZM57.39 14.30L57.39 14.30Q56.18 14.30 55.27 13.79Q54.36 13.29 53.85 12.40Q53.33 11.51 53.33 10.36L53.33 10.36Q53.33 9.21 53.82 8.33Q54.32 7.45 55.18 6.94Q56.04 6.44 57.11 6.44L57.11 6.44Q58.20 6.44 59.04 6.93Q59.89 7.42 60.37 8.31Q60.86 9.20 60.86 10.36L60.86 10.36Q60.86 10.43 60.85 10.52Q60.84 10.60 60.84 10.68L60.84 10.68L54.13 10.68L54.13 9.91L60.28 9.91L59.87 10.21Q59.87 9.38 59.51 8.72Q59.15 8.07 58.53 7.70Q57.92 7.33 57.11 7.33L57.11 7.33Q56.32 7.33 55.68 7.70Q55.05 8.07 54.70 8.73Q54.35 9.39 54.35 10.24L54.35 10.24L54.35 10.40Q54.35 11.29 54.74 11.96Q55.13 12.62 55.82 13.00Q56.52 13.37 57.42 13.37L57.42 13.37Q58.12 13.37 58.73 13.12Q59.34 12.87 59.78 12.36L59.78 12.36L60.37 13.04Q59.86 13.65 59.09 13.98Q58.31 14.30 57.39 14.30ZM66.78 14.23L65.71 14.23L62.28 6.51L63.37 6.51L66.51 13.67L66.00 13.67L69.19 6.51L70.22 6.51L66.78 14.23ZM75.70 14.30L75.70 14.30Q74.49 14.30 73.58 13.79Q72.67 13.29 72.16 12.40Q71.64 11.51 71.64 10.36L71.64 10.36Q71.64 9.21 72.14 8.33Q72.63 7.45 73.49 6.94Q74.35 6.44 75.42 6.44L75.42 6.44Q76.51 6.44 77.35 6.93Q78.20 7.42 78.68 8.31Q79.17 9.20 79.17 10.36L79.17 10.36Q79.17 10.43 79.16 10.52Q79.15 10.60 79.15 10.68L79.15 10.68L72.44 10.68L72.44 9.91L78.60 9.91L78.18 10.21Q78.18 9.38 77.82 8.72Q77.46 8.07 76.85 7.70Q76.23 7.33 75.42 7.33L75.42 7.33Q74.63 7.33 74.00 7.70Q73.36 8.07 73.01 8.73Q72.66 9.39 72.66 10.24L72.66 10.24L72.66 10.40Q72.66 11.29 73.05 11.96Q73.44 12.62 74.13 13.00Q74.83 13.37 75.73 13.37L75.73 13.37Q76.43 13.37 77.04 13.12Q77.65 12.87 78.10 12.36L78.10 12.36L78.68 13.04Q78.17 13.65 77.40 13.98Q76.63 14.30 75.70 14.30ZM83.08 14.23L82.03 14.23L82.03 3.32L83.08 3.32L83.08 14.23ZM89.87 14.30L89.87 14.30Q88.75 14.30 87.86 13.79Q86.97 13.29 86.46 12.40Q85.94 11.51 85.94 10.36L85.94 10.36Q85.94 9.20 86.46 8.32Q86.97 7.44 87.85 6.94Q88.74 6.44 89.87 6.44L89.87 6.44Q91.01 6.44 91.90 6.94Q92.79 7.44 93.30 8.32Q93.81 9.20 93.81 10.36L93.81 10.36Q93.81 11.51 93.30 12.40Q92.79 13.29 91.90 13.79Q91.00 14.30 89.87 14.30ZM89.87 13.37L89.87 13.37Q90.70 13.37 91.35 13.00Q92.00 12.62 92.37 11.94Q92.75 11.26 92.75 10.36L92.75 10.36Q92.75 9.45 92.37 8.77Q92.00 8.10 91.35 7.72Q90.70 7.35 89.88 7.35L89.88 7.35Q89.06 7.35 88.41 7.72Q87.77 8.10 87.38 8.77Q87.00 9.45 87.00 10.36L87.00 10.36Q87.00 11.26 87.38 11.94Q87.77 12.62 88.41 13.00Q89.06 13.37 89.87 13.37ZM100.65 14.30L100.65 14.30Q99.65 14.30 98.85 13.84Q98.04 13.37 97.56 12.50Q97.08 11.62 97.08 10.36L97.08 10.36Q97.08 9.10 97.55 8.22Q98.02 7.35 98.83 6.89Q99.64 6.44 100.65 6.44L100.65 6.44Q101.76 6.44 102.63 6.93Q103.50 7.42 104.00 8.31Q104.50 9.20 104.50 10.36L104.50 10.36Q104.50 11.54 104.00 12.42Q103.50 13.30 102.63 13.80Q101.76 14.30 100.65 14.30ZM97.71 17.08L96.67 17.08L96.67 6.51L97.67 6.51L97.67 8.83L97.57 10.38L97.71 11.93L97.71 17.08ZM100.58 13.37L100.58 13.37Q101.40 13.37 102.05 13.00Q102.70 12.62 103.08 11.94Q103.46 11.26 103.46 10.36L103.46 10.36Q103.46 9.46 103.08 8.79Q102.70 8.11 102.05 7.73Q101.40 7.35 100.58 7.35L100.58 7.35Q99.76 7.35 99.10 7.73Q98.45 8.11 98.07 8.79Q97.70 9.46 97.70 10.36L97.70 10.36Q97.70 11.26 98.07 11.94Q98.45 12.62 99.10 13.00Q99.76 13.37 100.58 13.37ZM111.35 14.30L111.35 14.30Q110.35 14.30 109.55 13.84Q108.74 13.37 108.26 12.50Q107.78 11.62 107.78 10.36L107.78 10.36Q107.78 9.10 108.25 8.22Q108.72 7.35 109.53 6.89Q110.34 6.44 111.35 6.44L111.35 6.44Q112.45 6.44 113.33 6.93Q114.20 7.42 114.70 8.31Q115.20 9.20 115.20 10.36L115.20 10.36Q115.20 11.54 114.70 12.42Q114.20 13.30 113.33 13.80Q112.45 14.30 111.35 14.30ZM108.41 17.08L107.37 17.08L107.37 6.51L108.37 6.51L108.37 8.83L108.27 10.38L108.41 11.93L108.41 17.08ZM111.28 13.37L111.28 13.37Q112.10 13.37 112.75 13.00Q113.40 12.62 113.78 11.94Q114.16 11.26 114.16 10.36L114.16 10.36Q114.16 9.46 113.78 8.79Q113.40 8.11 112.75 7.73Q112.10 7.35 111.28 7.35L111.28 7.35Q110.46 7.35 109.80 7.73Q109.15 8.11 108.77 8.79Q108.40 9.46 108.40 10.36L108.40 10.36Q108.40 11.26 108.77 11.94Q109.15 12.62 109.80 13.00Q110.46 13.37 111.28 13.37ZM121.35 14.30L121.35 14.30Q120.14 14.30 119.23 13.79Q118.32 13.29 117.80 12.40Q117.29 11.51 117.29 10.36L117.29 10.36Q117.29 9.21 117.78 8.33Q118.27 7.45 119.13 6.94Q119.99 6.44 121.07 6.44L121.07 6.44Q122.15 6.44 123.00 6.93Q123.84 7.42 124.33 8.31Q124.81 9.20 124.81 10.36L124.81 10.36Q124.81 10.43 124.81 10.52Q124.80 10.60 124.80 10.68L124.80 10.68L118.08 10.68L118.08 9.91L124.24 9.91L123.83 10.21Q123.83 9.38 123.47 8.72Q123.11 8.07 122.49 7.70Q121.88 7.33 121.07 7.33L121.07 7.33Q120.27 7.33 119.64 7.70Q119.01 8.07 118.66 8.73Q118.30 9.39 118.30 10.24L118.30 10.24L118.30 10.40Q118.30 11.29 118.69 11.96Q119.08 12.62 119.78 13.00Q120.48 13.37 121.38 13.37L121.38 13.37Q122.08 13.37 122.69 13.12Q123.30 12.87 123.74 12.36L123.74 12.36L124.33 13.04Q123.82 13.65 123.04 13.98Q122.27 14.30 121.35 14.30ZM128.72 14.23L127.68 14.23L127.68 6.51L128.68 6.51L128.68 8.61L128.58 8.24Q128.90 7.36 129.66 6.90Q130.43 6.44 131.56 6.44L131.56 6.44L131.56 7.45Q131.50 7.45 131.44 7.44Q131.38 7.44 131.32 7.44L131.32 7.44Q130.11 7.44 129.41 8.18Q128.72 8.92 128.72 10.29L128.72 10.29L128.72 14.23Z" transform="translate(0, 0)"></path></g></svg></g> <g transform="rotate(0 331.42434332911137 277.2819551646693)"><svg xmlns="http://www.w3.org/2000/svg" y="267.4569534480555" viewBox="2.369999885559082 4.949999809265137 307.1499938964844 19.65000343322754" x="177.8493463808692" height="19.65000343322754" width="307.1499938964844" style="overflow: visible;"><g fill="#E8FAF4" fill-opacity="1" style=""><path d="M8.55 16.93L5.30 20.26L5.12 16.38L14.38 6.76L18.07 6.76L10.37 14.94L8.55 16.93ZM5.65 24.43L2.37 24.43L2.37 6.76L5.65 6.76L5.65 24.43ZM18.52 24.43L14.69 24.43L7.92 16.38L10.09 13.98L18.52 24.43ZM33.11 24.60L33.11 24.60Q30.86 24.60 29.19 23.71Q27.51 22.81 26.59 21.25Q25.66 19.68 25.66 17.69L25.66 17.69Q25.66 15.67 26.56 14.12Q27.46 12.57 29.03 11.68Q30.61 10.80 32.63 10.80L32.63 10.80Q34.60 10.80 36.14 11.66Q37.68 12.52 38.56 14.08Q39.44 15.65 39.44 17.77L39.44 17.77Q39.44 17.97 39.43 18.22Q39.42 18.47 39.39 18.70L39.39 18.70L28.16 18.70L28.16 16.61L37.73 16.61L36.49 17.26Q36.52 16.10 36.01 15.22Q35.51 14.33 34.64 13.83Q33.77 13.32 32.63 13.32L32.63 13.32Q31.47 13.32 30.60 13.83Q29.73 14.33 29.24 15.23Q28.74 16.13 28.74 17.34L28.74 17.34L28.74 17.84Q28.74 19.05 29.30 19.99Q29.85 20.92 30.86 21.43Q31.87 21.93 33.19 21.93L33.19 21.93Q34.32 21.93 35.23 21.58Q36.14 21.22 36.84 20.47L36.84 20.47L38.54 22.41Q37.63 23.47 36.25 24.04Q34.88 24.60 33.11 24.60ZM55.62 24.43L52.36 24.43L46.59 10.95L49.87 10.95L54.84 22.84L53.22 22.84L58.37 10.95L61.40 10.95L55.62 24.43ZM72.83 24.43L69.68 24.43L69.68 10.95L72.83 10.95L72.83 24.43ZM71.27 8.73L71.27 8.73Q70.38 8.73 69.81 8.18Q69.25 7.62 69.25 6.84L69.25 6.84Q69.25 6.03 69.81 5.49Q70.38 4.95 71.27 4.95L71.27 4.95Q72.15 4.95 72.72 5.46Q73.28 5.98 73.28 6.76L73.28 6.76Q73.28 7.60 72.73 8.16Q72.17 8.73 71.27 8.73ZM86.43 24.43L83.28 24.43L83.28 10.95L86.28 10.95L86.28 14.59L85.75 13.48Q86.46 12.19 87.81 11.49Q89.16 10.80 90.92 10.80L90.92 10.80Q92.54 10.80 93.81 11.43Q95.09 12.06 95.82 13.36Q96.55 14.66 96.55 16.71L96.55 16.71L96.55 24.43L93.40 24.43L93.40 17.11Q93.40 15.32 92.55 14.43Q91.71 13.55 90.19 13.55L90.19 13.55Q89.08 13.55 88.22 14.01Q87.37 14.46 86.90 15.36Q86.43 16.25 86.43 17.61L86.43 17.61L86.43 24.43ZM129.23 24.43L120.45 24.43L120.45 6.76L128.73 6.76Q131.91 6.76 133.57 8.01Q135.24 9.26 135.24 11.36L135.24 11.36Q135.24 12.77 134.58 13.77Q133.93 14.76 132.83 15.31Q131.73 15.85 130.44 15.85L130.44 15.85L130.90 14.94Q132.39 14.94 133.57 15.48Q134.76 16.02 135.45 17.06Q136.15 18.09 136.15 19.63L136.15 19.63Q136.15 21.90 134.41 23.17Q132.66 24.43 129.23 24.43L129.23 24.43ZM123.73 9.34L123.73 21.85L129.03 21.85Q130.87 21.85 131.86 21.25Q132.84 20.64 132.84 19.31L132.84 19.31Q132.84 17.99 131.86 17.37Q130.87 16.76 129.03 16.76L129.03 16.76L123.48 16.76L123.48 14.21L128.37 14.21Q130.09 14.21 131.01 13.60Q131.93 13.00 131.93 11.79L131.93 11.79Q131.93 10.55 131.01 9.94Q130.09 9.34 128.37 9.34L128.37 9.34L123.73 9.34ZM159.21 24.43L145.96 24.43L145.96 6.76L158.86 6.76L158.86 9.51L149.24 9.51L149.24 21.68L159.21 21.68L159.21 24.43ZM157.77 16.81L148.99 16.81L148.99 14.11L157.77 14.11L157.77 16.81ZM172.46 24.43L169.18 24.43L169.18 6.76L176.42 6.76Q179.96 6.76 181.96 8.43Q183.97 10.09 183.97 13.05L183.97 13.05Q183.97 14.99 183.06 16.39Q182.15 17.79 180.47 18.54Q178.80 19.28 176.45 19.28L176.45 19.28L171.00 19.28L172.46 17.79L172.46 24.43ZM184.27 24.43L180.74 24.43L176.27 18.02L179.78 18.02L184.27 24.43ZM172.46 7.92L172.46 18.14L171.00 16.58L176.30 16.58Q178.47 16.58 179.57 15.65Q180.66 14.71 180.66 13.05L180.66 13.05Q180.66 11.36 179.57 10.45Q178.47 9.54 176.30 9.54L176.30 9.54L171.00 9.54L172.46 7.92ZM200.80 24.43L197.52 24.43L197.52 9.54L191.67 9.54L191.67 6.76L206.66 6.76L206.66 9.54L200.80 9.54L200.80 24.43ZM218.72 24.43L215.44 24.43L215.44 6.76L222.68 6.76Q226.21 6.76 228.22 8.43Q230.23 10.09 230.23 13.05L230.23 13.05Q230.23 14.99 229.32 16.39Q228.41 17.79 226.73 18.54Q225.05 19.28 222.71 19.28L222.71 19.28L217.25 19.28L218.72 17.79L218.72 24.43ZM230.53 24.43L227.00 24.43L222.53 18.02L226.04 18.02L230.53 24.43ZM218.72 7.92L218.72 18.14L217.25 16.58L222.55 16.58Q224.72 16.58 225.82 15.65Q226.92 14.71 226.92 13.05L226.92 13.05Q226.92 11.36 225.82 10.45Q224.72 9.54 222.55 9.54L222.55 9.54L217.25 9.54L218.72 7.92ZM241.08 24.43L237.70 24.43L245.65 6.76L248.88 6.76L256.85 24.43L253.42 24.43L246.58 8.50L247.89 8.50L241.08 24.43ZM252.66 20.34L241.36 20.34L242.24 17.77L251.78 17.77L252.66 20.34ZM268.66 24.43L265.40 24.43L265.40 6.76L268.11 6.76L279.18 20.37L277.85 20.37L277.85 6.76L281.10 6.76L281.10 24.43L278.40 24.43L267.32 10.83L268.66 10.83L268.66 24.43ZM299.88 24.43L292.15 24.43L292.15 6.76L299.88 6.76Q302.75 6.76 304.92 7.87Q307.09 8.98 308.31 10.95Q309.52 12.92 309.52 15.60L309.52 15.60Q309.52 18.25 308.31 20.23Q307.09 22.21 304.92 23.32Q302.75 24.43 299.88 24.43L299.88 24.43ZM295.44 9.54L295.44 21.65L299.73 21.65Q301.69 21.65 303.16 20.90Q304.62 20.14 305.42 18.78Q306.21 17.41 306.21 15.60L306.21 15.60Q306.21 13.75 305.42 12.40Q304.62 11.05 303.16 10.30Q301.69 9.54 299.73 9.54L299.73 9.54L295.44 9.54Z" transform="translate(0, 0)"></path></g></svg></g></svg>
                </g>
            </svg>
        