<?xml version="1.0" encoding="UTF-8" standalone="no"?>
<svg
   viewBox="88 252.736 399.99999 70"
   version="1.1"
   id="svg6"
   sodipodi:docname="LogoKevin.svg"
   width="400"
   height="70"
   inkscape:version="1.4.2 (f4327f4, 2025-05-13)"
   xmlns:inkscape="http://www.inkscape.org/namespaces/inkscape"
   xmlns:sodipodi="http://sodipodi.sourceforge.net/DTD/sodipodi-0.dtd"
   xmlns="http://www.w3.org/2000/svg"
   xmlns:svg="http://www.w3.org/2000/svg">
  <defs
     id="defs6" />
  <sodipodi:namedview
     id="namedview6"
     pagecolor="#ffffff"
     bordercolor="#000000"
     borderopacity="0.25"
     inkscape:showpageshadow="2"
     inkscape:pageopacity="0.0"
     inkscape:pagecheckerboard="0"
     inkscape:deskcolor="#d1d1d1"
     showguides="true"
     inkscape:zoom="5.6780627"
     inkscape:cx="306.26643"
     inkscape:cy="96.952082"
     inkscape:window-width="5120"
     inkscape:window-height="1369"
     inkscape:window-x="-8"
     inkscape:window-y="-8"
     inkscape:window-maximized="1"
     inkscape:current-layer="svg6">
    <sodipodi:guide
       position="-96.864027,98.88308"
       orientation="0.70710678,-0.70710678"
       id="guide6"
       inkscape:locked="false" />
  </sodipodi:namedview>
  <g
     id="g2">
    <svg
       xmlnsSerif="http://www.serif.com/"
       viewBox="766.43091 857.19391 1467.1516 1285.6125"
       version="1.1"
       xml:space="preserve"
       height="65.527855"
       width="74.78093"
       y="254.73607"
       x="90"
       preserveAspectRatio="xMinYMin"
       fill-rule="evenodd"
       clip-rule="evenodd"
       stroke-linejoin="round"
       stroke-miterlimit="2"
       style="overflow:visible"
       id="svg2"><path
         d="m 656.91,798.783 87.669,-260.308 -66.043,-66.043 h 110 L 856.104,540 Z"
         style="fill:#25a1b0;fill-opacity:1"
         id="path1"
         transform="matrix(3.50759,0,0,3.50759,-1537.74,-658.997)" /><path
         transform="matrix(3.50759,0,0,3.50759,-1547.74,-658.997)"
         d="M 799.357,665.689 979.035,432.26 h 99.005 L 913.751,645.689 h 7.827 l 86.922,112.922 h -99.003 l -71.524,-92.922 z"
         style="fill:#000000;fill-opacity:1"
         id="path2" /></svg>
  </g>
  <g
     id="g4">
    <svg
       y="293.79068"
       viewBox="0.54000002 3.3199999 131.05 13.76"
       x="177.88649"
       height="13.76"
       width="131.05"
       style="overflow:visible"
       version="1.1"
       id="svg3">
      <g
         fill="#25a1b0"
         fill-opacity="1"
         id="g3">
        <path
           d="M 5.15,14.23 H 4.01 L 0.54,3.94 h 1.12 l 3.25,9.69 H 4.35 L 7.7,3.94 h 1 l 3.31,9.69 H 11.48 L 14.76,3.94 H 15.8 L 12.33,14.23 H 11.19 L 8.03,5.04 H 8.32 Z M 21.8,14.3 v 0 q -1.21,0 -2.12,-0.5 -0.91,-0.51 -1.42,-1.4 -0.52,-0.89 -0.52,-2.04 v 0 q 0,-1.14 0.5,-2.03 0.49,-0.88 1.35,-1.38 0.86,-0.51 1.93,-0.51 v 0 q 1.09,0 1.93,0.49 0.85,0.49 1.33,1.38 0.49,0.89 0.49,2.05 v 0 q 0,0.08 -0.01,0.16 -0.01,0.08 -0.01,0.17 v 0 H 18.54 V 9.91 h 6.16 l -0.42,0.31 q 0,-0.84 -0.36,-1.5 Q 23.56,8.07 22.95,7.7 22.33,7.34 21.52,7.34 v 0 q -0.79,0 -1.43,0.36 -0.63,0.37 -0.98,1.03 -0.35,0.66 -0.35,1.52 v 0 0.16 q 0,0.88 0.39,1.55 0.39,0.67 1.08,1.04 0.7,0.38 1.6,0.38 v 0 q 0.71,0 1.32,-0.25 0.61,-0.25 1.05,-0.77 v 0 l 0.58,0.68 q -0.51,0.62 -1.28,0.94 -0.77,0.32 -1.7,0.32 z m 10.32,0 v 0 q -1.01,0 -1.82,-0.46 -0.81,-0.46 -1.28,-1.34 -0.47,-0.89 -0.47,-2.14 v 0 q 0,-1.26 0.48,-2.14 0.47,-0.87 1.28,-1.33 0.81,-0.45 1.81,-0.45 v 0 q 1.1,0 1.98,0.49 0.87,0.49 1.37,1.38 0.5,0.88 0.5,2.05 v 0 q 0,1.16 -0.5,2.05 -0.5,0.89 -1.37,1.39 -0.88,0.5 -1.98,0.5 z m -2.98,-0.07 h -1 V 3.32 h 1.04 v 5.47 l -0.15,1.56 0.11,1.56 z m 2.91,-0.85 v 0 q 0.82,0 1.47,-0.38 0.64,-0.37 1.03,-1.06 0.38,-0.68 0.38,-1.58 v 0 Q 34.93,9.45 34.55,8.78 34.16,8.1 33.52,7.72 32.87,7.35 32.05,7.35 v 0 q -0.83,0 -1.48,0.37 -0.66,0.38 -1.03,1.06 -0.38,0.67 -0.38,1.58 v 0 q 0,0.9 0.38,1.58 0.37,0.69 1.03,1.06 0.65,0.38 1.48,0.38 z M 46.5,14.3 v 0 q -1.11,0 -1.98,-0.5 -0.88,-0.5 -1.38,-1.39 -0.5,-0.89 -0.5,-2.05 v 0 q 0,-1.17 0.5,-2.05 0.5,-0.89 1.38,-1.38 0.87,-0.49 1.98,-0.49 v 0 q 1.01,0 1.81,0.45 0.8,0.46 1.28,1.33 0.48,0.88 0.48,2.14 v 0 q 0,1.25 -0.47,2.14 -0.47,0.88 -1.27,1.34 -0.8,0.46 -1.83,0.46 z m 0.07,-0.92 v 0 q 0.82,0 1.48,-0.38 0.65,-0.37 1.03,-1.06 0.37,-0.68 0.37,-1.58 v 0 Q 49.45,9.45 49.08,8.78 48.7,8.1 48.05,7.72 47.39,7.35 46.57,7.35 v 0 q -0.81,0 -1.46,0.37 -0.64,0.38 -1.02,1.06 -0.39,0.67 -0.39,1.58 v 0 q 0,0.9 0.39,1.58 0.38,0.69 1.02,1.06 0.65,0.38 1.46,0.38 z m 3.91,0.85 h -1 v -2.32 l 0.1,-1.56 -0.14,-1.56 V 3.32 h 1.04 z m 6.92,0.07 v 0 q -1.2,0 -2.11,-0.5 -0.91,-0.51 -1.43,-1.4 -0.51,-0.89 -0.51,-2.04 v 0 q 0,-1.14 0.49,-2.03 0.49,-0.88 1.35,-1.38 0.86,-0.51 1.93,-0.51 v 0 q 1.09,0 1.94,0.49 0.84,0.49 1.33,1.38 0.48,0.89 0.48,2.05 v 0 q 0,0.08 0,0.16 -0.01,0.08 -0.01,0.17 v 0 H 54.14 V 9.91 h 6.16 l -0.41,0.31 q 0,-0.84 -0.36,-1.5 Q 59.17,8.07 58.55,7.7 57.93,7.34 57.12,7.34 v 0 q -0.79,0 -1.42,0.36 -0.63,0.37 -0.99,1.03 -0.35,0.66 -0.35,1.52 v 0 0.16 q 0,0.88 0.39,1.55 0.39,0.67 1.09,1.04 0.7,0.38 1.59,0.38 v 0 q 0.71,0 1.32,-0.25 0.61,-0.25 1.05,-0.77 v 0 l 0.59,0.68 q -0.52,0.62 -1.29,0.94 -0.77,0.32 -1.7,0.32 z m 9.4,-0.07 H 65.72 L 62.3,6.51 h 1.09 l 3.14,7.16 h -0.51 l 3.19,-7.16 h 1.03 z m 8.92,0.07 v 0 q -1.21,0 -2.12,-0.5 -0.91,-0.51 -1.42,-1.4 -0.52,-0.89 -0.52,-2.04 v 0 q 0,-1.14 0.5,-2.03 0.49,-0.88 1.35,-1.38 0.86,-0.51 1.93,-0.51 v 0 q 1.09,0 1.93,0.49 0.85,0.49 1.33,1.38 0.49,0.89 0.49,2.05 v 0 q 0,0.08 -0.01,0.16 -0.01,0.08 -0.01,0.17 v 0 H 72.46 V 9.91 h 6.16 L 78.2,10.22 Q 78.2,9.38 77.84,8.72 77.48,8.07 76.87,7.7 76.25,7.34 75.44,7.34 v 0 q -0.79,0 -1.43,0.36 -0.63,0.37 -0.98,1.03 -0.35,0.66 -0.35,1.52 v 0 0.16 q 0,0.88 0.39,1.55 0.39,0.67 1.08,1.04 0.7,0.38 1.6,0.38 v 0 q 0.7,0 1.31,-0.25 0.61,-0.25 1.06,-0.77 v 0 l 0.58,0.68 q -0.51,0.62 -1.28,0.94 -0.77,0.32 -1.7,0.32 z M 83.1,14.23 H 82.06 V 3.32 h 1.04 z m 6.79,0.07 v 0 q -1.12,0 -2.01,-0.5 -0.89,-0.51 -1.4,-1.4 -0.51,-0.89 -0.51,-2.04 v 0 q 0,-1.16 0.51,-2.04 0.51,-0.88 1.4,-1.38 0.88,-0.5 2.01,-0.5 v 0 q 1.15,0 2.04,0.5 0.89,0.5 1.39,1.38 0.51,0.88 0.51,2.04 v 0 q 0,1.15 -0.51,2.04 -0.5,0.89 -1.4,1.4 -0.9,0.5 -2.03,0.5 z m 0,-0.92 v 0 q 0.84,0 1.49,-0.38 0.64,-0.37 1.02,-1.06 0.37,-0.68 0.37,-1.58 v 0 Q 92.77,9.45 92.4,8.78 92.02,8.1 91.38,7.72 90.73,7.35 89.91,7.35 v 0 q -0.83,0 -1.47,0.37 -0.65,0.38 -1.03,1.06 -0.39,0.67 -0.39,1.58 v 0 q 0,0.9 0.39,1.58 0.38,0.69 1.03,1.06 0.64,0.38 1.45,0.38 z m 10.79,0.92 v 0 q -1,0 -1.81,-0.46 -0.81,-0.46 -1.28,-1.34 -0.48,-0.87 -0.48,-2.14 v 0 q 0,-1.26 0.47,-2.14 0.47,-0.87 1.28,-1.33 0.81,-0.45 1.82,-0.45 v 0 q 1.1,0 1.98,0.49 0.87,0.49 1.37,1.38 0.5,0.89 0.5,2.05 v 0 q 0,1.18 -0.5,2.06 -0.5,0.88 -1.37,1.38 -0.88,0.5 -1.98,0.5 z m -2.94,2.78 H 96.7 V 6.51 h 1 v 2.32 l -0.11,1.55 0.15,1.56 z m 2.87,-3.7 v 0 q 0.82,0 1.47,-0.38 0.64,-0.37 1.03,-1.06 0.38,-0.68 0.38,-1.58 v 0 q 0,-0.89 -0.38,-1.57 -0.39,-0.68 -1.03,-1.06 -0.65,-0.38 -1.47,-0.38 v 0 q -0.83,0 -1.48,0.38 -0.65,0.38 -1.03,1.06 -0.37,0.68 -0.37,1.57 v 0 q 0,0.9 0.37,1.58 0.38,0.69 1.03,1.06 0.65,0.38 1.48,0.38 z m 10.77,0.92 v 0 q -1,0 -1.81,-0.46 -0.8,-0.46 -1.28,-1.34 -0.48,-0.87 -0.48,-2.14 v 0 q 0,-1.26 0.47,-2.14 0.47,-0.87 1.28,-1.33 0.81,-0.45 1.82,-0.45 v 0 q 1.1,0 1.98,0.49 0.87,0.49 1.37,1.38 0.5,0.89 0.5,2.05 v 0 q 0,1.18 -0.5,2.06 -0.5,0.88 -1.37,1.38 -0.88,0.5 -1.98,0.5 z m -2.94,2.78 H 107.4 V 6.51 h 1 v 2.32 l -0.1,1.55 0.14,1.56 z m 2.87,-3.7 v 0 q 0.82,0 1.47,-0.38 0.65,-0.37 1.03,-1.06 0.38,-0.68 0.38,-1.58 v 0 q 0,-0.89 -0.38,-1.57 -0.38,-0.68 -1.03,-1.06 -0.65,-0.38 -1.47,-0.38 v 0 q -0.82,0 -1.48,0.38 -0.65,0.38 -1.03,1.06 -0.37,0.68 -0.37,1.57 v 0 q 0,0.9 0.37,1.58 0.38,0.69 1.03,1.06 0.66,0.38 1.48,0.38 z m 10.07,0.92 v 0 q -1.21,0 -2.12,-0.5 -0.91,-0.51 -1.42,-1.4 -0.52,-0.89 -0.52,-2.04 v 0 q 0,-1.14 0.49,-2.03 0.5,-0.88 1.36,-1.38 0.86,-0.51 1.93,-0.51 v 0 q 1.09,0 1.93,0.49 0.85,0.49 1.33,1.38 0.49,0.89 0.49,2.05 v 0 q 0,0.08 -0.01,0.16 -0.01,0.08 -0.01,0.17 v 0 h -6.72 V 9.91 h 6.16 l -0.41,0.31 q 0,-0.84 -0.36,-1.5 -0.36,-0.65 -0.98,-1.02 -0.61,-0.36 -1.42,-0.36 v 0 q -0.8,0 -1.43,0.36 -0.63,0.37 -0.98,1.03 -0.35,0.66 -0.35,1.52 v 0 0.16 q 0,0.88 0.38,1.55 0.39,0.67 1.09,1.04 0.7,0.38 1.6,0.38 v 0 q 0.7,0 1.31,-0.25 0.61,-0.25 1.05,-0.77 v 0 l 0.59,0.68 q -0.51,0.62 -1.28,0.94 -0.78,0.32 -1.7,0.32 z m 7.38,-0.07 h -1.05 V 6.51 h 1 v 2.1 l -0.1,-0.36 q 0.32,-0.89 1.09,-1.35 0.76,-0.46 1.89,-0.46 v 0 1.01 q -0.05,0 -0.11,0 -0.06,-0.01 -0.12,-0.01 v 0 q -1.22,0 -1.91,0.74 -0.69,0.74 -0.69,2.11 v 0 z"
           id="path3" />
      </g>
    </svg>
  </g>
  <g
     id="g6">
    <svg
       y="267.44849"
       viewBox="2.3699999 4.9499998 307.12 19.650003"
       x="177.88649"
       height="19.650003"
       width="307.12"
       style="overflow:visible"
       version="1.1"
       id="svg5">
      <g
         fill="#000000"
         id="g5">
        <path
           d="M 8.55,16.93 5.3,20.26 5.12,16.38 14.38,6.76 h 3.69 l -7.7,8.18 z m -2.9,7.5 H 2.37 V 6.76 h 3.28 z m 12.87,0 h -3.83 l -6.77,-8.05 2.17,-2.4 z m 14.59,0.17 v 0 q -2.25,0 -3.93,-0.89 -1.68,-0.9 -2.6,-2.46 -0.92,-1.57 -0.92,-3.56 v 0 q 0,-2.02 0.9,-3.57 0.89,-1.55 2.47,-2.44 1.58,-0.88 3.6,-0.88 v 0 q 1.96,0 3.5,0.86 1.54,0.86 2.43,2.42 0.88,1.56 0.88,3.68 v 0 q 0,0.21 -0.01,0.46 -0.02,0.25 -0.04,0.48 v 0 H 28.16 v -2.1 h 9.56 l -1.23,0.66 q 0.02,-1.16 -0.48,-2.04 -0.51,-0.89 -1.38,-1.39 -0.87,-0.51 -2,-0.51 v 0 q -1.16,0 -2.03,0.51 -0.88,0.5 -1.37,1.4 -0.49,0.89 -0.49,2.11 v 0 0.5 q 0,1.21 0.56,2.14 0.55,0.94 1.56,1.44 1.01,0.51 2.32,0.51 v 0 q 1.14,0 2.05,-0.36 0.9,-0.35 1.61,-1.11 v 0 l 1.69,1.95 q -0.91,1.06 -2.28,1.62 -1.38,0.57 -3.14,0.57 z m 22.5,-0.17 H 52.36 L 46.58,10.95 h 3.28 l 4.97,11.89 h -1.61 l 5.14,-11.89 h 3.03 z m 17.21,0 H 69.67 V 10.95 h 3.15 z M 71.26,8.73 v 0 q -0.88,0 -1.45,-0.55 -0.57,-0.56 -0.57,-1.34 v 0 q 0,-0.81 0.57,-1.35 0.57,-0.54 1.45,-0.54 v 0 q 0.88,0 1.45,0.51 0.57,0.52 0.57,1.3 v 0 q 0,0.84 -0.56,1.4 -0.55,0.57 -1.46,0.57 z m 15.16,15.7 H 83.27 V 10.95 h 3 v 3.63 l -0.53,-1.11 q 0.71,-1.28 2.06,-1.98 1.35,-0.69 3.12,-0.69 v 0 q 1.61,0 2.88,0.63 1.28,0.63 2.01,1.93 0.73,1.3 0.73,3.34 v 0 7.73 h -3.15 v -7.32 q 0,-1.79 -0.85,-2.68 -0.84,-0.88 -2.36,-0.88 v 0 q -1.11,0 -1.96,0.45 -0.86,0.46 -1.33,1.35 -0.47,0.9 -0.47,2.26 v 0 z m 42.8,0 h -8.78 V 6.76 h 8.28 q 3.17,0 4.84,1.25 1.67,1.25 1.67,3.35 v 0 q 0,1.41 -0.66,2.4 -0.66,1 -1.75,1.54 -1.1,0.55 -2.39,0.55 v 0 l 0.46,-0.91 q 1.48,0 2.67,0.54 1.19,0.54 1.88,1.58 0.69,1.03 0.69,2.57 v 0 q 0,2.27 -1.74,3.53 -1.74,1.27 -5.17,1.27 z m -5.5,-15.09 v 12.51 h 5.3 q 1.84,0 2.82,-0.6 0.99,-0.61 0.99,-1.95 v 0 q 0,-1.31 -0.99,-1.93 -0.98,-0.62 -2.82,-0.62 v 0 h -5.55 v -2.54 h 4.89 q 1.72,0 2.64,-0.61 0.92,-0.6 0.92,-1.82 v 0 q 0,-1.23 -0.92,-1.84 -0.92,-0.6 -2.64,-0.6 v 0 z M 159.2,24.43 H 145.95 V 6.76 h 12.89 v 2.75 h -9.61 v 12.17 h 9.97 z m -1.44,-7.62 h -8.78 v -2.7 h 8.78 z m 14.68,7.62 h -3.28 V 6.76 h 7.25 q 3.53,0 5.54,1.67 2,1.66 2,4.62 v 0 q 0,1.94 -0.91,3.34 -0.91,1.4 -2.58,2.14 -1.68,0.75 -4.03,0.75 v 0 h -5.45 l 1.46,-1.49 z m 11.81,0 h -3.53 l -4.47,-6.41 h 3.51 z M 172.44,7.92 v 10.22 l -1.46,-1.56 h 5.3 q 2.17,0 3.27,-0.94 1.1,-0.93 1.1,-2.59 v 0 q 0,-1.69 -1.1,-2.6 -1.1,-0.91 -3.27,-0.91 v 0 h -5.3 z m 28.34,16.51 H 197.5 V 9.54 h -5.85 V 6.76 h 14.99 v 2.78 h -5.86 z m 17.92,0 h -3.28 V 6.76 h 7.24 q 3.53,0 5.54,1.67 2,1.66 2,4.62 v 0 q 0,1.94 -0.9,3.34 -0.91,1.4 -2.59,2.14 -1.68,0.75 -4.03,0.75 v 0 h -5.45 l 1.47,-1.49 z m 11.81,0 h -3.54 l -4.46,-6.41 h 3.51 z M 218.7,7.92 v 10.22 l -1.47,-1.56 h 5.3 q 2.17,0 3.27,-0.94 1.1,-0.93 1.1,-2.59 v 0 q 0,-1.69 -1.1,-2.6 -1.1,-0.91 -3.27,-0.91 v 0 h -5.3 z m 22.35,16.51 h -3.38 l 7.95,-17.67 h 3.23 l 7.98,17.67 h -3.44 L 246.56,8.5 h 1.31 z m 11.59,-4.09 h -11.31 l 0.88,-2.58 h 9.54 z m 15.99,4.09 h -3.25 V 6.76 h 2.7 l 11.08,13.6 h -1.34 V 6.76 h 3.25 v 17.67 h -2.7 L 267.3,10.83 h 1.33 z m 31.22,0 h -7.72 V 6.76 h 7.72 q 2.87,0 5.04,1.11 2.17,1.11 3.39,3.08 1.21,1.97 1.21,4.64 v 0 q 0,2.65 -1.21,4.63 -1.22,1.99 -3.39,3.1 -2.17,1.11 -5.04,1.11 z M 295.41,9.54 v 12.11 h 4.29 q 1.96,0 3.43,-0.76 1.46,-0.75 2.26,-2.12 0.79,-1.36 0.79,-3.18 v 0 q 0,-1.84 -0.79,-3.19 -0.8,-1.35 -2.26,-2.1 -1.47,-0.76 -3.43,-0.76 v 0 z"
           id="path4" />
      </g>
    </svg>
  </g>
</svg>
