<svg xmlns="http://www.w3.org/2000/svg" viewBox="20 184.73607424237477 535.0064921421857 205.5278515152505"> <g transform="rotate(0 127.39046336097405 287.5)"><svg xmlns="http://www.w3.org/2000/svg" xmlns:xlink="http://www.w3.org/1999/xlink" xmlnsSerif="http://www.serif.com/" viewBox="766.430908203125 857.1939086914062 1467.151611328125 1285.612548828125" version="1.1" xml:space="preserve" height="65.52785151525048" width="74.7809267219481" y="254.73607424237477" x="90" preserveAspectRatio="xMinYMin" fill-rule="evenodd" clip-rule="evenodd" stroke-linejoin="round" stroke-miterlimit="2" style="overflow: visible;"><path transform="matrix(3.50759,0,0,3.50759,-1537.74,-658.997)" d="M656.91,798.783L744.579,538.475L678.536,472.432L788.536,472.432L856.104,540L656.91,798.783Z" style="fill: #25A1B0; fill-opacity: 1;"></path><path transform="matrix(3.50759,0,0,3.50759,-1547.74,-658.997)" d="M799.357,665.689L979.035,432.26L1078.04,432.26L913.751,645.689L921.578,645.689L1008.5,758.611L909.497,758.611L837.973,665.689L799.357,665.689Z" style="fill: #000; fill-opacity: 1;"></path></svg></g> <g transform="rotate(0 243.41149855087713 300.670673859905)"><svg y="293.79067374546406" viewBox="0.5400000214576721 3.319999933242798 131.0500030517578 13.760000228881836" x="177.88649702499822" height="13.760000228881836" width="131.0500030517578" style="overflow: visible;"><g fill="#25A1B0" fill-opacity="1" style=""><path d="M5.15 14.23L4.01 14.23L0.54 3.94L1.66 3.94L4.91 13.63L4.35 13.63L7.70 3.94L8.70 3.94L12.01 13.63L11.48 13.63L14.76 3.94L15.80 3.94L12.33 14.23L11.19 14.23L8.03 5.04L8.32 5.04L5.15 14.23ZM21.80 14.30L21.80 14.30Q20.59 14.30 19.68 13.80Q18.77 13.29 18.26 12.40Q17.74 11.51 17.74 10.36L17.74 10.36Q17.74 9.22 18.24 8.33Q18.73 7.45 19.59 6.95Q20.45 6.44 21.52 6.44L21.52 6.44Q22.61 6.44 23.45 6.93Q24.30 7.42 24.78 8.31Q25.27 9.20 25.27 10.36L25.27 10.36Q25.27 10.44 25.26 10.52Q25.25 10.60 25.25 10.69L25.25 10.69L18.54 10.69L18.54 9.91L24.70 9.91L24.28 10.22Q24.28 9.38 23.92 8.72Q23.56 8.07 22.95 7.70Q22.33 7.34 21.52 7.34L21.52 7.34Q20.73 7.34 20.09 7.70Q19.46 8.07 19.11 8.73Q18.76 9.39 18.76 10.25L18.76 10.25L18.76 10.41Q18.76 11.29 19.15 11.96Q19.54 12.63 20.23 13.00Q20.93 13.38 21.83 13.38L21.83 13.38Q22.54 13.38 23.15 13.13Q23.76 12.88 24.20 12.36L24.20 12.36L24.78 13.04Q24.27 13.66 23.50 13.98Q22.73 14.30 21.80 14.30ZM32.12 14.30L32.12 14.30Q31.11 14.30 30.30 13.84Q29.49 13.38 29.02 12.50Q28.55 11.61 28.55 10.36L28.55 10.36Q28.55 9.10 29.03 8.22Q29.50 7.35 30.31 6.89Q31.12 6.44 32.12 6.44L32.12 6.44Q33.22 6.44 34.10 6.93Q34.97 7.42 35.47 8.31Q35.97 9.19 35.97 10.36L35.97 10.36Q35.97 11.52 35.47 12.41Q34.97 13.30 34.10 13.80Q33.22 14.30 32.12 14.30ZM29.14 14.23L28.14 14.23L28.14 3.32L29.18 3.32L29.18 8.79L29.03 10.35L29.14 11.91L29.14 14.23ZM32.05 13.38L32.05 13.38Q32.87 13.38 33.52 13.00Q34.16 12.63 34.55 11.94Q34.93 11.26 34.93 10.36L34.93 10.36Q34.93 9.45 34.55 8.78Q34.16 8.10 33.52 7.72Q32.87 7.35 32.05 7.35L32.05 7.35Q31.22 7.35 30.57 7.72Q29.91 8.10 29.54 8.78Q29.16 9.45 29.16 10.36L29.16 10.36Q29.16 11.26 29.54 11.94Q29.91 12.63 30.57 13.00Q31.22 13.38 32.05 13.38ZM46.50 14.30L46.50 14.30Q45.39 14.30 44.52 13.80Q43.64 13.30 43.14 12.41Q42.64 11.52 42.64 10.36L42.64 10.36Q42.64 9.19 43.14 8.31Q43.64 7.42 44.52 6.93Q45.39 6.44 46.50 6.44L46.50 6.44Q47.51 6.44 48.31 6.89Q49.11 7.35 49.59 8.22Q50.07 9.10 50.07 10.36L50.07 10.36Q50.07 11.61 49.60 12.50Q49.13 13.38 48.33 13.84Q47.53 14.30 46.50 14.30ZM46.57 13.38L46.57 13.38Q47.39 13.38 48.05 13.00Q48.70 12.63 49.08 11.94Q49.45 11.26 49.45 10.36L49.45 10.36Q49.45 9.45 49.08 8.78Q48.70 8.10 48.05 7.72Q47.39 7.35 46.57 7.35L46.57 7.35Q45.76 7.35 45.11 7.72Q44.47 8.10 44.09 8.78Q43.70 9.45 43.70 10.36L43.70 10.36Q43.70 11.26 44.09 11.94Q44.47 12.63 45.11 13.00Q45.76 13.38 46.57 13.38ZM50.48 14.23L49.48 14.23L49.48 11.91L49.58 10.35L49.44 8.79L49.44 3.32L50.48 3.32L50.48 14.23ZM57.40 14.30L57.40 14.30Q56.20 14.30 55.29 13.80Q54.38 13.29 53.86 12.40Q53.35 11.51 53.35 10.36L53.35 10.36Q53.35 9.22 53.84 8.33Q54.33 7.45 55.19 6.95Q56.05 6.44 57.12 6.44L57.12 6.44Q58.21 6.44 59.06 6.93Q59.90 7.42 60.39 8.31Q60.87 9.20 60.87 10.36L60.87 10.36Q60.87 10.44 60.87 10.52Q60.86 10.60 60.86 10.69L60.86 10.69L54.14 10.69L54.14 9.91L60.30 9.91L59.89 10.22Q59.89 9.38 59.53 8.72Q59.17 8.07 58.55 7.70Q57.93 7.34 57.12 7.34L57.12 7.34Q56.33 7.34 55.70 7.70Q55.07 8.07 54.71 8.73Q54.36 9.39 54.36 10.25L54.36 10.25L54.36 10.41Q54.36 11.29 54.75 11.96Q55.14 12.63 55.84 13.00Q56.54 13.38 57.43 13.38L57.43 13.38Q58.14 13.38 58.75 13.13Q59.36 12.88 59.80 12.36L59.80 12.36L60.39 13.04Q59.87 13.66 59.10 13.98Q58.33 14.30 57.40 14.30ZM66.80 14.23L65.72 14.23L62.30 6.51L63.39 6.51L66.53 13.67L66.02 13.67L69.21 6.51L70.24 6.51L66.80 14.23ZM75.72 14.30L75.72 14.30Q74.51 14.30 73.60 13.80Q72.69 13.29 72.18 12.40Q71.66 11.51 71.66 10.36L71.66 10.36Q71.66 9.22 72.16 8.33Q72.65 7.45 73.51 6.95Q74.37 6.44 75.44 6.44L75.44 6.44Q76.53 6.44 77.37 6.93Q78.22 7.42 78.70 8.31Q79.19 9.20 79.19 10.36L79.19 10.36Q79.19 10.44 79.18 10.52Q79.17 10.60 79.17 10.69L79.17 10.69L72.46 10.69L72.46 9.91L78.62 9.91L78.20 10.22Q78.20 9.38 77.84 8.72Q77.48 8.07 76.87 7.70Q76.25 7.34 75.44 7.34L75.44 7.34Q74.65 7.34 74.01 7.70Q73.38 8.07 73.03 8.73Q72.68 9.39 72.68 10.25L72.68 10.25L72.68 10.41Q72.68 11.29 73.07 11.96Q73.46 12.63 74.15 13.00Q74.85 13.38 75.75 13.38L75.75 13.38Q76.45 13.38 77.06 13.13Q77.67 12.88 78.12 12.36L78.12 12.36L78.70 13.04Q78.19 13.66 77.42 13.98Q76.65 14.30 75.72 14.30ZM83.10 14.23L82.06 14.23L82.06 3.32L83.10 3.32L83.10 14.23ZM89.89 14.30L89.89 14.30Q88.77 14.30 87.88 13.80Q86.99 13.29 86.48 12.40Q85.97 11.51 85.97 10.36L85.97 10.36Q85.97 9.20 86.48 8.32Q86.99 7.44 87.88 6.94Q88.76 6.44 89.89 6.44L89.89 6.44Q91.04 6.44 91.93 6.94Q92.82 7.44 93.32 8.32Q93.83 9.20 93.83 10.36L93.83 10.36Q93.83 11.51 93.32 12.40Q92.82 13.29 91.92 13.80Q91.02 14.30 89.89 14.30ZM89.89 13.38L89.89 13.38Q90.73 13.38 91.38 13.00Q92.02 12.63 92.40 11.94Q92.77 11.26 92.77 10.36L92.77 10.36Q92.77 9.45 92.40 8.78Q92.02 8.10 91.38 7.72Q90.73 7.35 89.91 7.35L89.91 7.35Q89.08 7.35 88.44 7.72Q87.79 8.10 87.41 8.78Q87.02 9.45 87.02 10.36L87.02 10.36Q87.02 11.26 87.41 11.94Q87.79 12.63 88.44 13.00Q89.08 13.38 89.89 13.38ZM100.68 14.30L100.68 14.30Q99.68 14.30 98.87 13.84Q98.06 13.38 97.59 12.50Q97.11 11.63 97.11 10.36L97.11 10.36Q97.11 9.10 97.58 8.22Q98.05 7.35 98.86 6.89Q99.67 6.44 100.68 6.44L100.68 6.44Q101.78 6.44 102.66 6.93Q103.53 7.42 104.03 8.31Q104.53 9.20 104.53 10.36L104.53 10.36Q104.53 11.54 104.03 12.42Q103.53 13.30 102.66 13.80Q101.78 14.30 100.68 14.30ZM97.74 17.08L96.70 17.08L96.70 6.51L97.70 6.51L97.70 8.83L97.59 10.38L97.74 11.94L97.74 17.08ZM100.61 13.38L100.61 13.38Q101.43 13.38 102.08 13.00Q102.72 12.63 103.11 11.94Q103.49 11.26 103.49 10.36L103.49 10.36Q103.49 9.47 103.11 8.79Q102.72 8.11 102.08 7.73Q101.43 7.35 100.61 7.35L100.61 7.35Q99.78 7.35 99.13 7.73Q98.48 8.11 98.10 8.79Q97.73 9.47 97.73 10.36L97.73 10.36Q97.73 11.26 98.10 11.94Q98.48 12.63 99.13 13.00Q99.78 13.38 100.61 13.38ZM111.38 14.30L111.38 14.30Q110.38 14.30 109.57 13.84Q108.77 13.38 108.29 12.50Q107.81 11.63 107.81 10.36L107.81 10.36Q107.81 9.10 108.28 8.22Q108.75 7.35 109.56 6.89Q110.37 6.44 111.38 6.44L111.38 6.44Q112.48 6.44 113.36 6.93Q114.23 7.42 114.73 8.31Q115.23 9.20 115.23 10.36L115.23 10.36Q115.23 11.54 114.73 12.42Q114.23 13.30 113.36 13.80Q112.48 14.30 111.38 14.30ZM108.44 17.08L107.40 17.08L107.40 6.51L108.40 6.51L108.40 8.83L108.30 10.38L108.44 11.94L108.44 17.08ZM111.31 13.38L111.31 13.38Q112.13 13.38 112.78 13.00Q113.43 12.63 113.81 11.94Q114.19 11.26 114.19 10.36L114.19 10.36Q114.19 9.47 113.81 8.79Q113.43 8.11 112.78 7.73Q112.13 7.35 111.31 7.35L111.31 7.35Q110.49 7.35 109.83 7.73Q109.18 8.11 108.80 8.79Q108.43 9.47 108.43 10.36L108.43 10.36Q108.43 11.26 108.80 11.94Q109.18 12.63 109.83 13.00Q110.49 13.38 111.31 13.38ZM121.38 14.30L121.38 14.30Q120.17 14.30 119.26 13.80Q118.35 13.29 117.84 12.40Q117.32 11.51 117.32 10.36L117.32 10.36Q117.32 9.22 117.81 8.33Q118.31 7.45 119.17 6.95Q120.03 6.44 121.10 6.44L121.10 6.44Q122.19 6.44 123.03 6.93Q123.88 7.42 124.36 8.31Q124.85 9.20 124.85 10.36L124.85 10.36Q124.85 10.44 124.84 10.52Q124.83 10.60 124.83 10.69L124.83 10.69L118.11 10.69L118.11 9.91L124.27 9.91L123.86 10.22Q123.86 9.38 123.50 8.72Q123.14 8.07 122.52 7.70Q121.91 7.34 121.10 7.34L121.10 7.34Q120.30 7.34 119.67 7.70Q119.04 8.07 118.69 8.73Q118.34 9.39 118.34 10.25L118.34 10.25L118.34 10.41Q118.34 11.29 118.72 11.96Q119.11 12.63 119.81 13.00Q120.51 13.38 121.41 13.38L121.41 13.38Q122.11 13.38 122.72 13.13Q123.33 12.88 123.77 12.36L123.77 12.36L124.36 13.04Q123.85 13.66 123.08 13.98Q122.30 14.30 121.38 14.30ZM128.76 14.23L127.71 14.23L127.71 6.51L128.71 6.51L128.71 8.61L128.61 8.25Q128.93 7.36 129.70 6.90Q130.46 6.44 131.59 6.44L131.59 6.44L131.59 7.45Q131.54 7.45 131.48 7.45Q131.42 7.44 131.36 7.44L131.36 7.44Q130.14 7.44 129.45 8.18Q128.76 8.92 128.76 10.29L128.76 10.29L128.76 14.23Z" transform="translate(0, 0)"></path></g></svg></g> <g transform="rotate(0 331.44649458359197 277.2734791529471)"><svg y="267.44847743633335" viewBox="2.369999885559082 4.949999809265137 307.1199951171875 19.65000343322754" x="177.8864970249982" height="19.65000343322754" width="307.1199951171875" style="overflow: visible;"><g fill="#000" style=""><path d="M8.55 16.93L5.30 20.26L5.12 16.38L14.38 6.76L18.07 6.76L10.37 14.94L8.55 16.93ZM5.65 24.43L2.37 24.43L2.37 6.76L5.65 6.76L5.65 24.43ZM18.52 24.43L14.69 24.43L7.92 16.38L10.09 13.98L18.52 24.43ZM33.11 24.60L33.11 24.60Q30.86 24.60 29.18 23.71Q27.50 22.81 26.58 21.25Q25.66 19.68 25.66 17.69L25.66 17.69Q25.66 15.67 26.56 14.12Q27.45 12.57 29.03 11.68Q30.61 10.80 32.63 10.80L32.63 10.80Q34.59 10.80 36.13 11.66Q37.67 12.52 38.56 14.08Q39.44 15.64 39.44 17.76L39.44 17.76Q39.44 17.97 39.43 18.22Q39.41 18.47 39.39 18.70L39.39 18.70L28.16 18.70L28.16 16.60L37.72 16.60L36.49 17.26Q36.51 16.10 36.01 15.22Q35.50 14.33 34.63 13.83Q33.76 13.32 32.63 13.32L32.63 13.32Q31.47 13.32 30.60 13.83Q29.72 14.33 29.23 15.23Q28.74 16.12 28.74 17.34L28.74 17.34L28.74 17.84Q28.74 19.05 29.30 19.98Q29.85 20.92 30.86 21.42Q31.87 21.93 33.18 21.93L33.18 21.93Q34.32 21.93 35.23 21.57Q36.13 21.22 36.84 20.46L36.84 20.46L38.53 22.41Q37.62 23.47 36.25 24.03Q34.87 24.60 33.11 24.60ZM55.61 24.43L52.36 24.43L46.58 10.95L49.86 10.95L54.83 22.84L53.22 22.84L58.36 10.95L61.39 10.95L55.61 24.43ZM72.82 24.43L69.67 24.43L69.67 10.95L72.82 10.95L72.82 24.43ZM71.26 8.73L71.26 8.73Q70.38 8.73 69.81 8.18Q69.24 7.62 69.24 6.84L69.24 6.84Q69.24 6.03 69.81 5.49Q70.38 4.95 71.26 4.95L71.26 4.95Q72.14 4.95 72.71 5.46Q73.28 5.98 73.28 6.76L73.28 6.76Q73.28 7.60 72.72 8.16Q72.17 8.73 71.26 8.73ZM86.42 24.43L83.27 24.43L83.27 10.95L86.27 10.95L86.27 14.58L85.74 13.47Q86.45 12.19 87.80 11.49Q89.15 10.80 90.92 10.80L90.92 10.80Q92.53 10.80 93.80 11.43Q95.08 12.06 95.81 13.36Q96.54 14.66 96.54 16.70L96.54 16.70L96.54 24.43L93.39 24.43L93.39 17.11Q93.39 15.32 92.54 14.43Q91.70 13.55 90.18 13.55L90.18 13.55Q89.07 13.55 88.22 14.00Q87.36 14.46 86.89 15.35Q86.42 16.25 86.42 17.61L86.42 17.61L86.42 24.43ZM129.22 24.43L120.44 24.43L120.44 6.76L128.72 6.76Q131.89 6.76 133.56 8.01Q135.23 9.26 135.23 11.36L135.23 11.36Q135.23 12.77 134.57 13.76Q133.91 14.76 132.82 15.30Q131.72 15.85 130.43 15.85L130.43 15.85L130.89 14.94Q132.37 14.94 133.56 15.48Q134.75 16.02 135.44 17.06Q136.13 18.09 136.13 19.63L136.13 19.63Q136.13 21.90 134.39 23.16Q132.65 24.43 129.22 24.43L129.22 24.43ZM123.72 9.34L123.72 21.85L129.02 21.85Q130.86 21.85 131.84 21.25Q132.83 20.64 132.83 19.30L132.83 19.30Q132.83 17.99 131.84 17.37Q130.86 16.75 129.02 16.75L129.02 16.75L123.47 16.75L123.47 14.21L128.36 14.21Q130.08 14.21 131.00 13.60Q131.92 13.00 131.92 11.78L131.92 11.78Q131.92 10.55 131.00 9.94Q130.08 9.34 128.36 9.34L128.36 9.34L123.72 9.34ZM159.20 24.43L145.95 24.43L145.95 6.76L158.84 6.76L158.84 9.51L149.23 9.51L149.23 21.68L159.20 21.68L159.20 24.43ZM157.76 16.81L148.98 16.81L148.98 14.11L157.76 14.11L157.76 16.81ZM172.44 24.43L169.16 24.43L169.16 6.76L176.41 6.76Q179.94 6.76 181.95 8.43Q183.95 10.09 183.95 13.05L183.95 13.05Q183.95 14.99 183.04 16.39Q182.13 17.79 180.46 18.53Q178.78 19.28 176.43 19.28L176.43 19.28L170.98 19.28L172.44 17.79L172.44 24.43ZM184.25 24.43L180.72 24.43L176.25 18.02L179.76 18.02L184.25 24.43ZM172.44 7.92L172.44 18.14L170.98 16.58L176.28 16.58Q178.45 16.58 179.55 15.64Q180.65 14.71 180.65 13.05L180.65 13.05Q180.65 11.36 179.55 10.45Q178.45 9.54 176.28 9.54L176.28 9.54L170.98 9.54L172.44 7.92ZM200.78 24.43L197.50 24.43L197.50 9.54L191.65 9.54L191.65 6.76L206.64 6.76L206.64 9.54L200.78 9.54L200.78 24.43ZM218.70 24.43L215.42 24.43L215.42 6.76L222.66 6.76Q226.19 6.76 228.20 8.43Q230.20 10.09 230.20 13.05L230.20 13.05Q230.20 14.99 229.30 16.39Q228.39 17.79 226.71 18.53Q225.03 19.28 222.68 19.28L222.68 19.28L217.23 19.28L218.70 17.79L218.70 24.43ZM230.51 24.43L226.97 24.43L222.51 18.02L226.02 18.02L230.51 24.43ZM218.70 7.92L218.70 18.14L217.23 16.58L222.53 16.58Q224.70 16.58 225.80 15.64Q226.90 14.71 226.90 13.05L226.90 13.05Q226.90 11.36 225.80 10.45Q224.70 9.54 222.53 9.54L222.53 9.54L217.23 9.54L218.70 7.92ZM241.05 24.43L237.67 24.43L245.62 6.76L248.85 6.76L256.83 24.43L253.39 24.43L246.56 8.50L247.87 8.50L241.05 24.43ZM252.64 20.34L241.33 20.34L242.21 17.76L251.75 17.76L252.64 20.34ZM268.63 24.43L265.38 24.43L265.38 6.76L268.08 6.76L279.16 20.36L277.82 20.36L277.82 6.76L281.07 6.76L281.07 24.43L278.37 24.43L267.30 10.83L268.63 10.83L268.63 24.43ZM299.85 24.43L292.13 24.43L292.13 6.76L299.85 6.76Q302.72 6.76 304.89 7.87Q307.06 8.98 308.28 10.95Q309.49 12.92 309.49 15.59L309.49 15.59Q309.49 18.24 308.28 20.22Q307.06 22.21 304.89 23.32Q302.72 24.43 299.85 24.43L299.85 24.43ZM295.41 9.54L295.41 21.65L299.70 21.65Q301.66 21.65 303.13 20.89Q304.59 20.14 305.39 18.77Q306.18 17.41 306.18 15.59L306.18 15.59Q306.18 13.75 305.39 12.40Q304.59 11.05 303.13 10.30Q301.66 9.54 299.70 9.54L299.70 9.54L295.41 9.54Z" transform="translate(0, 0)"></path></g></svg></g></svg>